# Blender v2.63 (sub 0) OBJ File: 'unit_capsule.blend'
# www.blender.org
o Mball_Meta
v -1.800000 0.800320 0.200000
v -1.969880 0.600000 0.200000
v -1.969880 0.600000 -0.200000
v -1.800000 0.800320 -0.200000
v -1.800000 0.600000 -0.557515
v -1.800000 0.557515 -0.600000
v -2.121196 0.200000 -0.200000
v -1.969881 0.200000 -0.600000
v -2.121196 -0.200000 -0.200000
v -1.969881 -0.200000 -0.600000
v -1.800000 -0.557515 -0.600000
v -1.969880 -0.600000 -0.200000
v -1.800000 -0.600000 -0.557515
v -1.800000 -0.800320 -0.200000
v -1.800000 -0.800320 0.200000
v -1.969880 -0.600000 0.200000
v -1.800000 -0.600000 0.557515
v -1.800000 -0.557515 0.600000
v -2.121196 -0.200000 0.200000
v -1.969881 -0.200000 0.600000
v -2.121196 0.200000 0.200000
v -1.969881 0.200000 0.600000
v -1.800000 -0.200000 0.800320
v -1.800000 0.200000 0.800320
v -1.800000 0.557515 0.600000
v -1.773261 0.600000 0.600000
v -1.400000 0.600000 0.895570
v -1.400000 0.364323 1.000000
v -1.516304 0.200000 1.000000
v -1.400000 0.895570 0.600000
v -1.516304 1.000000 0.200000
v -1.400000 1.000000 0.364323
v -1.800000 0.600000 0.557515
v -1.400000 1.070014 0.200000
v -1.516304 1.000000 -0.200000
v -1.400000 1.070014 -0.200000
v -1.400000 1.000000 -0.364323
v -1.000000 1.000000 -0.557515
v -1.000000 1.150200 -0.200000
v -1.400000 0.895570 -0.600000
v -1.000000 0.981045 -0.600000
v -1.400000 0.600000 -0.895570
v -1.000000 0.600000 -0.981045
v -1.400000 0.364323 -1.000000
v -1.000000 0.557515 -1.000000
v -1.400000 0.200000 -1.070014
v -1.000000 0.200000 -1.150200
v -1.400000 -0.200000 -1.070014
v -1.000000 -0.200000 -1.150200
v -1.400000 -0.364323 -1.000000
v -1.000000 -0.557515 -1.000000
v -1.400000 -0.600000 -0.895570
v -1.000000 -0.600000 -0.981045
v -1.400000 -0.895570 -0.600000
v -1.000000 -0.981045 -0.600000
v -1.400000 -1.000000 -0.364323
v -1.000000 -1.000000 -0.557515
v -1.400000 -1.070014 -0.200000
v -1.000000 -1.150200 -0.200000
v -1.400000 -1.070014 0.200000
v -1.000000 -1.150200 0.200000
v -1.400000 -1.000000 0.364323
v -1.000000 -1.000000 0.557515
v -1.400000 -0.895570 0.600000
v -1.000000 -0.981045 0.600000
v -1.400000 -0.600000 0.895570
v -1.000000 -0.600000 0.981045
v -1.400000 -0.364323 1.000000
v -1.000000 -0.557515 1.000000
v -1.400000 -0.200000 1.070014
v -1.000000 -0.200000 1.150200
v -1.400000 0.200000 1.070014
v -1.000000 0.200000 1.150200
v -1.000000 0.557515 1.000000
v -0.600000 0.557515 1.000000
v -0.600000 0.200000 1.150200
v -1.000000 0.600000 0.981045
v -0.600000 0.600000 0.981045
v -1.000000 0.981045 0.600000
v -0.600000 0.981045 0.600000
v -1.000000 1.000000 0.557515
v -0.600000 1.000000 0.557515
v -1.000000 1.150200 0.200000
v -0.600000 1.150200 0.200000
v -0.600000 1.150200 -0.200000
v -0.200000 0.981045 0.600000
v -0.200000 0.600000 0.981045
v 0.200000 0.981045 0.600000
v 0.200000 0.600000 0.981045
v -0.200000 0.557515 1.000000
v 0.200000 0.557515 1.000000
v 0.200000 0.200000 1.150200
v -0.200000 0.200000 1.150200
v -0.200000 -0.200000 1.150200
v 0.200000 -0.200000 1.150200
v -0.200000 -0.557515 1.000000
v 0.200000 -0.557515 1.000000
v 0.200000 -0.600000 0.981045
v -0.200000 -0.600000 0.981045
v -0.200000 -0.981045 0.600000
v 0.200000 -0.981045 0.600000
v 0.200000 -1.000000 0.557515
v -0.200000 -1.000000 0.557515
v 0.600000 -0.981045 0.600000
v 0.600000 -1.000000 0.557515
v 0.200000 -1.150200 0.200000
v 0.600000 -1.150200 0.200000
v 0.600000 -1.150200 -0.200000
v 0.200000 -1.150200 -0.200000
v 0.600000 -1.000000 -0.557515
v 0.200000 -1.000000 -0.557515
v 0.200000 -0.981045 -0.600000
v 0.600000 -0.981045 -0.600000
v 0.600000 -0.600000 -0.981045
v 0.200000 -0.600000 -0.981045
v 0.200000 -0.557515 -1.000000
v 0.600000 -0.557515 -1.000000
v 0.600000 -0.200000 -1.150200
v 0.200000 -0.200000 -1.150200
v 0.600000 0.200000 -1.150200
v 0.200000 0.200000 -1.150200
v 0.200000 0.557515 -1.000000
v 0.600000 0.557515 -1.000000
v 0.600000 0.600000 -0.981045
v 0.200000 0.600000 -0.981045
v 0.200000 0.981045 -0.600000
v 0.600000 0.981045 -0.600000
v 0.600000 1.000000 -0.557515
v 0.200000 1.000000 -0.557515
v 0.200000 1.150200 -0.200000
v 0.600000 1.150200 -0.200000
v 0.200000 1.150200 0.200000
v 0.600000 1.150200 0.200000
v 0.600000 1.000000 0.557515
v 0.200000 1.000000 0.557515
v 0.600000 0.981045 0.600000
v 1.000000 1.000000 0.557515
v 1.000000 0.981045 0.600000
v 1.000000 0.600000 0.981045
v 0.600000 0.600000 0.981045
v 0.600000 0.557515 1.000000
v 1.000000 0.557515 1.000000
v 1.000000 0.200000 1.150200
v 0.600000 0.200000 1.150200
v 0.600000 -0.200000 1.150200
v 1.000000 -0.200000 1.150200
v 0.600000 -0.557515 1.000000
v 1.000000 -0.557515 1.000000
v 1.000000 -0.600000 0.981045
v 0.600000 -0.600000 0.981045
v 1.000000 -0.981045 0.600000
v 1.400000 -0.600000 0.895570
v 1.400000 -0.895570 0.600000
v 1.400000 -1.000000 0.364323
v 1.000000 -1.000000 0.557515
v 1.773261 -0.600000 0.600000
v 1.800000 -0.600000 0.557515
v 1.800000 -0.800320 0.200000
v 1.516304 -1.000000 0.200000
v 1.800000 -0.557515 0.600000
v 1.400000 -0.364323 1.000000
v 1.516304 -0.200000 1.000000
v 1.800000 -0.200000 0.800320
v 1.516304 0.200000 1.000000
v 1.800000 0.200000 0.800320
v 1.400000 0.364323 1.000000
v 1.400000 0.600000 0.895570
v 1.773261 0.600000 0.600000
v 1.800000 0.557515 0.600000
v 1.400000 0.895570 0.600000
v 1.400000 0.200000 1.070014
v 1.969881 0.200000 0.600000
v 1.800000 0.600000 0.557515
v 1.969880 0.600000 0.200000
v 2.121196 0.200000 0.200000
v 1.800000 0.800320 0.200000
v 1.800000 0.800320 -0.200000
v 1.969880 0.600000 -0.200000
v 1.800000 0.600000 -0.557515
v 1.800000 0.557515 -0.600000
v 1.969881 0.200000 -0.600000
v 2.121196 0.200000 -0.200000
v 2.121196 -0.200000 -0.200000
v 1.969881 -0.200000 -0.600000
v 1.800000 -0.557515 -0.600000
v 1.800000 -0.600000 -0.557515
v 1.969880 -0.600000 -0.200000
v 1.800000 -0.800320 -0.200000
v 1.969880 -0.600000 0.200000
v 1.400000 -0.895570 -0.600000
v 1.400000 -1.000000 -0.364323
v 1.516304 -1.000000 -0.200000
v 1.773261 -0.600000 -0.600000
v 1.400000 -1.070014 -0.200000
v 1.000000 -1.150200 -0.200000
v 1.000000 -1.000000 -0.557515
v 1.400000 -0.600000 -0.895570
v 1.400000 -0.364323 -1.000000
v 1.800000 -0.200000 -0.800320
v 1.516304 -0.200000 -1.000000
v 1.800000 0.200000 -0.800320
v 1.516304 0.200000 -1.000000
v 1.400000 0.364323 -1.000000
v 1.773261 0.600000 -0.600000
v 1.400000 0.600000 -0.895570
v 1.400000 0.895570 -0.600000
v 1.400000 0.200000 -1.070014
v 1.400000 -0.200000 -1.070014
v 1.000000 -0.981045 -0.600000
v 1.000000 -0.600000 -0.981045
v 1.516304 1.000000 -0.200000
v 1.400000 1.000000 -0.364323
v 1.400000 1.070014 -0.200000
v 1.400000 1.070014 0.200000
v 1.516304 1.000000 0.200000
v 1.400000 1.000000 0.364323
v 1.000000 1.150200 0.200000
v 1.000000 1.150200 -0.200000
v 1.000000 1.000000 -0.557515
v 1.000000 0.981045 -0.600000
v 1.400000 -0.200000 1.070014
v 1.969881 -0.200000 0.600000
v -0.200000 1.150200 -0.200000
v -0.200000 1.000000 -0.557515
v -0.600000 1.000000 -0.557515
v -0.600000 0.981045 -0.600000
v -0.200000 0.981045 -0.600000
v -0.200000 -0.981045 -0.600000
v -0.200000 -0.600000 -0.981045
v -0.600000 -0.981045 -0.600000
v -0.600000 -0.600000 -0.981045
v -0.600000 -1.000000 -0.557515
v -0.200000 -1.000000 -0.557515
v -0.600000 -1.150200 -0.200000
v -0.200000 -1.150200 -0.200000
v 1.000000 -1.150200 0.200000
v -0.600000 -0.981045 0.600000
v -0.600000 -1.000000 0.557515
v -0.600000 -0.600000 0.981045
v -0.600000 -0.557515 1.000000
v -0.600000 -0.200000 1.150200
v -1.516304 -0.200000 1.000000
v -1.773261 -0.600000 0.600000
v -0.600000 -1.150200 0.200000
v -1.516304 -1.000000 0.200000
v -1.516304 -1.000000 -0.200000
v -1.773261 -0.600000 -0.600000
v -0.600000 -0.557515 -1.000000
v -0.600000 -0.200000 -1.150200
v -0.600000 0.200000 -1.150200
v -0.600000 0.557515 -1.000000
v -0.600000 0.600000 -0.981045
v -1.773261 0.600000 -0.600000
v -1.516304 0.200000 -1.000000
v -1.516304 -0.200000 -1.000000
v -1.800000 -0.200000 -0.800320
v -1.800000 0.200000 -0.800320
v -0.200000 -1.150200 0.200000
v -0.200000 1.150200 0.200000
v -0.200000 1.000000 0.557515
v -0.200000 -0.200000 -1.150200
v -0.200000 0.200000 -1.150200
v -0.200000 -0.557515 -1.000000
v -0.200000 0.557515 -1.000000
v -0.200000 0.600000 -0.981045
v 1.400000 -1.070014 0.200000
v 2.121196 -0.200000 0.200000
v 1.000000 -0.200000 -1.150200
v 1.000000 0.200000 -1.150200
v 1.000000 -0.557515 -1.000000
v 1.000000 0.557515 -1.000000
v 1.000000 0.600000 -0.981045
vn -0.659597 0.728843 0.183477
vn -0.659597 0.728843 -0.183477
vn -0.850337 0.491104 -0.188971
vn -0.847621 0.499496 0.178869
vn -0.732719 0.541581 -0.412000
vn -0.966216 0.182501 -0.181890
vn -0.729942 0.381756 -0.566942
vn -0.850795 0.191351 -0.489364
vn -0.848079 -0.178320 -0.498917
vn -0.966369 -0.181768 -0.181768
vn -0.847621 -0.499496 -0.178869
vn -0.726707 -0.388348 -0.566637
vn -0.719321 -0.561998 -0.408246
vn -0.659597 -0.728843 -0.183477
vn -0.850337 -0.491104 0.188971
vn -0.659597 -0.728843 0.183477
vn -0.732719 -0.541581 0.412000
vn -0.966216 -0.182501 0.181890
vn -0.729942 -0.381756 0.566942
vn -0.850795 -0.191351 0.489364
vn -0.848079 0.178320 0.498917
vn -0.966369 0.181768 0.181768
vn -0.655629 0.191717 0.730308
vn -0.655629 -0.191717 0.730308
vn -0.726707 0.388348 0.566637
vn -0.369396 0.385632 0.845454
vn -0.362957 0.521683 0.772057
vn -0.616260 0.542253 0.571093
vn -0.543168 0.194830 0.816675
vn -0.351543 0.770226 0.532090
vn -0.358592 0.854244 0.376324
vn -0.539201 0.823176 0.177709
vn -0.719321 0.561998 0.408246
vn -0.349284 0.918699 0.184210
vn -0.349284 0.918699 -0.184210
vn -0.539201 0.823176 -0.177709
vn -0.358592 0.854244 -0.376324
vn -0.096133 0.976104 -0.194739
vn -0.094699 0.913083 -0.396558
vn -0.087039 0.824763 -0.558702
vn -0.351543 0.770226 -0.532090
vn -0.087039 0.558702 -0.824763
vn -0.362957 0.521683 -0.772057
vn -0.094699 0.396558 -0.913083
vn -0.369396 0.385632 -0.845454
vn -0.096133 0.194739 -0.976104
vn -0.349284 0.184210 -0.918699
vn -0.096133 -0.194739 -0.976104
vn -0.349284 -0.184210 -0.918699
vn -0.094699 -0.396558 -0.913083
vn -0.369396 -0.385632 -0.845454
vn -0.087039 -0.558702 -0.824763
vn -0.362957 -0.521683 -0.772057
vn -0.087039 -0.824763 -0.558702
vn -0.351543 -0.770226 -0.532090
vn -0.094699 -0.913083 -0.396558
vn -0.358592 -0.854244 -0.376324
vn -0.096133 -0.976104 -0.194739
vn -0.349284 -0.918699 -0.184210
vn -0.096133 -0.976104 0.194739
vn -0.349284 -0.918699 0.184210
vn -0.094699 -0.913083 0.396558
vn -0.358592 -0.854244 0.376324
vn -0.087039 -0.824763 0.558702
vn -0.351543 -0.770226 0.532090
vn -0.087039 -0.558702 0.824763
vn -0.362957 -0.521683 0.772057
vn -0.094699 -0.396558 0.913083
vn -0.369396 -0.385632 0.845454
vn -0.096133 -0.194739 0.976104
vn -0.349284 -0.184210 0.918699
vn -0.096133 0.194739 0.976104
vn -0.349284 0.184210 0.918699
vn -0.094699 0.396558 0.913083
vn 0.000000 0.197546 0.980285
vn 0.000000 0.397382 0.917631
vn 0.000000 0.566698 0.823878
vn -0.087039 0.558702 0.824763
vn 0.000000 0.823878 0.566698
vn -0.087039 0.824763 0.558702
vn 0.000000 0.917631 0.397382
vn -0.094699 0.913083 0.396558
vn 0.000000 0.980285 0.197546
vn -0.096133 0.976104 0.194739
vn 0.000000 0.980285 -0.197546
vn 0.000000 -0.197546 0.980285
vn 0.000000 -0.397382 0.917631
vn 0.000000 -0.566698 0.823878
vn 0.000000 -0.823878 0.566698
vn 0.000000 -0.917631 0.397382
vn 0.000000 -0.980285 0.197546
vn 0.000000 -0.980285 -0.197546
vn 0.000000 -0.917631 -0.397382
vn 0.000000 -0.823878 -0.566698
vn 0.000000 -0.566698 -0.823878
vn 0.000000 -0.397382 -0.917631
vn 0.000000 -0.197546 -0.980285
vn 0.000000 0.197546 -0.980285
vn 0.000000 0.397382 -0.917631
vn 0.000000 0.566698 -0.823878
vn 0.000000 0.823878 -0.566698
vn 0.000000 0.917631 -0.397382
vn 0.087039 0.824763 0.558702
vn 0.094699 0.913083 0.396558
vn 0.087039 0.558702 0.824763
vn 0.094699 0.396558 0.913083
vn 0.096133 0.194739 0.976104
vn 0.096133 -0.194739 0.976104
vn 0.094699 -0.396558 0.913083
vn 0.087039 -0.558702 0.824763
vn 0.087039 -0.824763 0.558702
vn 0.351543 -0.770226 0.532090
vn 0.362957 -0.521683 0.772057
vn 0.094699 -0.913083 0.396558
vn 0.358592 -0.854244 0.376324
vn 0.659597 -0.728843 0.183477
vn 0.719321 -0.561998 0.408246
vn 0.616260 -0.542253 0.571093
vn 0.539201 -0.823176 0.177709
vn 0.726707 -0.388348 0.566637
vn 0.655629 -0.191717 0.730308
vn 0.543168 -0.194830 0.816675
vn 0.369396 -0.385632 0.845454
vn 0.655629 0.191717 0.730308
vn 0.543168 0.194830 0.816675
vn 0.729942 0.381756 0.566942
vn 0.616260 0.542253 0.571093
vn 0.362957 0.521683 0.772057
vn 0.369396 0.385632 0.845454
vn 0.351543 0.770226 0.532090
vn 0.349284 0.184210 0.918699
vn 0.850795 0.191351 0.489364
vn 0.966216 0.182501 0.181890
vn 0.850337 0.491104 0.188971
vn 0.732719 0.541581 0.412000
vn 0.659597 0.728843 0.183477
vn 0.847621 0.499496 -0.178869
vn 0.659597 0.728843 -0.183477
vn 0.719321 0.561998 -0.408246
vn 0.966369 0.181768 -0.181768
vn 0.848079 0.178320 -0.498917
vn 0.726707 0.388348 -0.566637
vn 0.850795 -0.191351 -0.489364
vn 0.966216 -0.182501 -0.181890
vn 0.850337 -0.491104 -0.188971
vn 0.732719 -0.541581 -0.412000
vn 0.729942 -0.381756 -0.566942
vn 0.659597 -0.728843 -0.183477
vn 0.847621 -0.499496 0.178869
vn 0.539201 -0.823176 -0.177709
vn 0.358592 -0.854244 -0.376324
vn 0.351543 -0.770226 -0.532090
vn 0.616260 -0.542253 -0.571093
vn 0.349284 -0.918699 -0.184210
vn 0.094699 -0.913083 -0.396558
vn 0.096133 -0.976104 -0.194739
vn 0.362957 -0.521683 -0.772057
vn 0.369396 -0.385632 -0.845454
vn 0.543168 -0.194830 -0.816675
vn 0.655629 -0.191717 -0.730308
vn 0.543168 0.194830 -0.816675
vn 0.655629 0.191717 -0.730308
vn 0.369396 0.385632 -0.845454
vn 0.362957 0.521683 -0.772057
vn 0.616260 0.542253 -0.571093
vn 0.351543 0.770226 -0.532090
vn 0.349284 0.184210 -0.918699
vn 0.349284 -0.184210 -0.918699
vn 0.087039 -0.558702 -0.824763
vn 0.087039 -0.824763 -0.558702
vn 0.358592 0.854244 -0.376324
vn 0.539201 0.823176 -0.177709
vn 0.349284 0.918699 -0.184210
vn 0.539201 0.823176 0.177709
vn 0.349284 0.918699 0.184210
vn 0.358592 0.854244 0.376324
vn 0.096133 0.976104 0.194739
vn 0.096133 0.976104 -0.194739
vn 0.094699 0.913083 -0.396558
vn 0.087039 0.824763 -0.558702
vn 0.349284 -0.184210 0.918699
vn 0.848079 -0.178320 0.498917
vn 0.096133 -0.976104 0.194739
vn -0.543168 -0.194830 0.816675
vn -0.616260 -0.542253 0.571093
vn -0.539201 -0.823176 0.177709
vn -0.539201 -0.823176 -0.177709
vn -0.616260 -0.542253 -0.571093
vn -0.616260 0.542253 -0.571093
vn -0.543168 -0.194830 -0.816675
vn -0.543168 0.194830 -0.816675
vn -0.655629 0.191717 -0.730308
vn -0.655629 -0.191717 -0.730308
vn 0.349284 -0.918699 0.184210
vn 0.966369 -0.181768 0.181768
vn 0.096133 0.194739 -0.976104
vn 0.096133 -0.194739 -0.976104
vn 0.094699 -0.396558 -0.913083
vn 0.094699 0.396558 -0.913083
vn 0.087039 0.558702 -0.824763
s 1
f 1//1 4//2 3//3 2//4
f 5//5 3//3 4//2
f 7//6 3//3 5//5 6//7
f 8//8 7//6 6//7
f 7//6 8//8 10//9 9//10
f 12//11 9//10 10//9 11//12
f 13//13 12//11 11//12
f 12//11 13//13 14//14
f 16//15 12//11 14//14 15//16
f 17//17 16//15 15//16
f 19//18 16//15 17//17 18//19
f 20//20 19//18 18//19
f 22//21 21//22 19//18 20//20
f 24//23 22//21 20//20 23//24
f 22//21 24//23 25//25
f 28//26 27//27 26//28 25//25
f 24//23 29//29 28//26 25//25
f 26//28 27//27 30//30
f 1//1 30//30 32//31 31//32
f 1//1 33//33 26//28 30//30
f 31//32 32//31 34//34
f 36//35 35//36 31//32 34//34
f 37//37 35//36 36//35
f 39//38 38//39 37//37 36//35
f 37//37 38//39 41//40 40//41
f 41//40 43//42 42//43 40//41
f 42//43 43//42 45//44 44//45
f 45//44 47//46 46//47 44//45
f 46//47 47//46 49//48 48//49
f 48//49 49//48 51//50 50//51
f 51//50 53//52 52//53 50//51
f 52//53 53//52 55//54 54//55
f 55//54 57//56 56//57 54//55
f 56//57 57//56 59//58 58//59
f 58//59 59//58 61//60 60//61
f 61//60 63//62 62//63 60//61
f 62//63 63//62 65//64 64//65
f 65//64 67//66 66//67 64//65
f 66//67 67//66 69//68 68//69
f 69//68 71//70 70//71 68//69
f 71//70 73//72 72//73 70//71
f 72//73 73//72 74//74 28//26
f 73//72 76//75 75//76 74//74
f 75//76 78//77 77//78 74//74
f 77//78 78//77 80//79 79//80
f 80//79 82//81 81//82 79//80
f 81//82 82//81 84//83 83//84
f 84//83 85//85 39//38 83//84
f 78//77 87//77 86//79 80//79
f 87//77 89//77 88//79 86//79
f 91//76 89//77 87//77 90//76
f 93//75 92//75 91//76 90//76
f 95//86 92//75 93//75 94//86
f 97//87 95//86 94//86 96//87
f 99//88 98//88 97//87 96//87
f 101//89 98//88 99//88 100//89
f 103//90 102//90 101//89 100//89
f 102//90 105//90 104//89 101//89
f 107//91 105//90 102//90 106//91
f 109//92 108//92 107//91 106//91
f 111//93 110//93 108//92 109//92
f 113//94 110//93 111//93 112//94
f 115//95 114//95 113//94 112//94
f 117//96 114//95 115//95 116//96
f 119//97 118//97 117//96 116//96
f 121//98 120//98 118//97 119//97
f 123//99 120//98 121//98 122//99
f 125//100 124//100 123//99 122//99
f 127//101 124//100 125//100 126//101
f 129//102 128//102 127//101 126//101
f 131//85 128//102 129//102 130//85
f 133//83 131//85 130//85 132//83
f 135//81 134//81 133//83 132//83
f 136//79 134//81 135//81 88//79
f 138//103 137//104 134//81 136//79
f 140//77 139//105 138//103 136//79
f 142//106 139//105 140//77 141//76
f 144//75 143//107 142//106 141//76
f 146//108 143//107 144//75 145//86
f 148//109 146//108 145//86 147//87
f 150//88 149//110 148//109 147//87
f 151//111 149//110 150//88 104//89
f 153//112 152//113 149//110 151//111
f 155//114 154//115 153//112 151//111
f 158//116 157//117 156//118 153//112
f 154//115 159//119 158//116 153//112
f 156//118 157//117 160//120
f 160//120 163//121 162//122 161//123
f 152//113 156//118 160//120 161//123
f 165//124 164//125 162//122 163//121
f 169//126 168//127 167//128 166//129
f 164//125 165//124 169//126 166//129
f 167//128 168//127 170//130
f 171//131 164//125 166//129
f 165//124 172//132 169//126
f 175//133 174//134 173//135 169//126
f 172//132 175//133 169//126
f 173//135 174//134 176//136
f 174//134 178//137 177//138 176//136
f 178//137 179//139 177//138
f 178//137 182//140 181//141 180//142
f 179//139 178//137 180//142
f 184//143 181//141 182//140 183//144
f 183//144 187//145 186//146 185//147
f 184//143 183//144 185//147
f 186//146 187//145 188//148
f 188//148 187//145 189//149 158//116
f 188//148 192//150 191//151 190//152
f 193//153 186//146 188//148 190//152
f 191//151 192//150 194//154
f 196//155 191//151 194//154 195//156
f 197//157 193//153 190//152
f 185//147 193//153 197//157 198//158
f 200//159 199//160 185//147 198//158
f 200//159 202//161 201//162 199//160
f 180//142 201//162 202//161 203//163
f 205//164 204//165 180//142 203//163
f 204//165 205//164 206//166
f 202//161 207//167 203//163
f 207//167 202//161 200//159 208//168
f 208//168 200//159 198//158
f 210//169 197//157 190//152 209//170
f 190//152 191//151 196//155 209//170
f 199//160 184//143 185//147
f 186//146 193//153 185//147
f 201//162 181//141 184//143 199//160
f 181//141 201//162 180//142
f 204//165 179//139 180//142
f 177//138 179//139 204//165 206//166
f 212//171 211//172 177//138 206//166
f 211//172 212//171 213//173
f 215//174 211//172 213//173 214//175
f 216//176 215//174 214//175
f 137//104 216//176 214//175 217//177
f 214//175 213//173 218//178 217//177
f 213//173 212//171 219//179 218//178
f 219//179 212//171 206//166 220//180
f 182//140 178//137 174//134 175//133
f 162//122 164//125 171//131 221//181
f 222//182 172//132 165//124 163//121
f 162//122 221//181 161//123
f 222//182 163//121 160//120
f 159//119 192//150 188//148 158//116
f 189//149 157//117 158//116
f 156//118 152//113 153//112
f 149//110 152//113 161//123 148//109
f 161//123 221//181 146//108 148//109
f 221//181 171//131 143//107 146//108
f 143//107 171//131 166//129 142//106
f 166//129 167//128 139//105 142//106
f 139//105 167//128 170//130 138//103
f 134//81 137//104 217//177 133//83
f 217//177 218//178 131//85 133//83
f 218//178 219//179 128//102 131//85
f 130//85 129//102 224//102 223//85
f 223//85 224//102 225//102 85//85
f 225//102 224//102 227//101 226//101
f 128//102 219//179 220//180 127//101
f 224//102 129//102 126//101 227//101
f 114//95 210//169 209//170 113//94
f 229//95 115//95 112//94 228//94
f 231//95 229//95 228//94 230//94
f 228//94 233//93 232//93 230//94
f 232//93 233//93 235//92 234//92
f 209//170 196//155 110//93 113//94
f 112//94 111//93 233//93 228//94
f 110//93 196//155 195//156 108//92
f 233//93 111//93 109//92 235//92
f 108//92 195//156 236//183 107//91
f 236//183 155//114 105//90 107//91
f 105//90 155//114 151//111 104//89
f 238//90 103//90 100//89 237//89
f 104//89 150//88 98//88 101//89
f 100//89 99//88 239//88 237//89
f 98//88 150//88 147//87 97//87
f 239//88 99//88 96//87 240//87
f 147//87 145//86 95//86 97//87
f 96//87 94//86 241//86 240//87
f 145//86 144//75 92//75 95//86
f 94//86 93//75 76//75 241//86
f 92//75 144//75 141//76 91//76
f 141//76 140//77 89//77 91//76
f 89//77 140//77 136//79 88//79
f 90//76 87//77 78//77 75//76
f 76//75 93//75 90//76 75//76
f 241//86 76//75 73//72 71//70
f 72//73 29//29 242//184 70//71
f 240//87 241//86 71//70 69//68
f 70//71 242//184 68//69
f 67//66 239//88 240//87 69//68
f 68//69 242//184 23//24 18//19
f 243//185 66//67 68//69 18//19
f 237//89 239//88 67//66 65//64
f 66//67 243//185 64//65
f 63//62 238//90 237//89 65//64
f 244//91 238//90 63//62 61//60
f 62//63 245//186 60//61
f 59//58 234//92 244//91 61//60
f 245//186 246//187 58//59 60//61
f 57//56 232//93 234//92 59//58
f 246//187 56//57 58//59
f 230//94 232//93 57//56 55//54
f 53//52 231//95 230//94 55//54
f 247//188 52//53 54//55
f 248//96 231//95 53//52 51//50
f 49//48 249//97 248//96 51//50
f 47//46 250//98 249//97 49//48
f 251//99 250//98 47//46 45//44
f 43//42 252//100 251//99 45//44
f 226//101 252//100 43//42 41//40
f 38//39 225//102 226//101 41//40
f 85//85 225//102 38//39 39//38
f 83//84 39//38 36//35 34//34
f 32//31 81//82 83//84 34//34
f 79//80 81//82 32//31 30//30
f 27//27 77//78 79//80 30//30
f 26//28 33//33 25//25
f 29//29 72//73 28//26
f 74//74 77//78 27//27 28//26
f 242//184 29//29 24//23 23//24
f 23//24 20//20 18//19
f 17//17 243//185 18//19
f 64//65 243//185 17//17 15//16
f 245//186 62//63 64//65 15//16
f 14//14 246//187 245//186 15//16
f 54//55 56//57 246//187 14//14
f 13//13 247//188 54//55 14//14
f 19//18 9//10 12//11 16//15
f 247//188 13//13 11//12
f 21//22 7//6 9//10 19//18
f 5//5 253//189 6//7
f 40//41 253//189 5//5 4//2
f 35//36 37//37 40//41 4//2
f 1//1 31//32 35//36 4//2
f 2//4 3//3 7//6 21//22
f 33//33 1//1 2//4
f 2//4 21//22 22//21 25//25
f 33//33 2//4 25//25
f 255//190 254//191 46//47 48//49
f 255//190 48//49 50//51
f 257//192 254//191 255//190 256//193
f 50//51 52//53 247//188 11//12
f 256//193 255//190 50//51 11//12
f 10//9 8//8 257//192 256//193
f 10//9 256//193 11//12
f 46//47 254//191 44//45
f 42//43 253//189 40//41
f 44//45 254//191 257//192 6//7
f 253//189 42//43 44//45 6//7
f 257//192 8//8 6//7
f 235//92 109//92 106//91 258//91
f 106//91 102//90 103//90 258//91
f 234//92 235//92 258//91 244//91
f 258//91 103//90 238//90 244//91
f 132//83 130//85 223//85 259//83
f 260//81 135//81 132//83 259//83
f 88//79 135//81 260//81 86//79
f 259//83 223//85 85//85 84//83
f 82//81 260//81 259//83 84//83
f 86//79 260//81 82//81 80//79
f 262//98 121//98 119//97 261//97
f 261//97 119//97 116//96 263//96
f 116//96 115//95 229//95 263//96
f 250//98 262//98 261//97 249//97
f 249//97 261//97 263//96 248//96
f 263//96 229//95 231//95 248//96
f 122//99 121//98 262//98 264//99
f 126//101 125//100 265//100 227//101
f 265//100 125//100 122//99 264//99
f 264//99 262//98 250//98 251//99
f 227//101 265//100 252//100 226//101
f 252//100 265//100 264//99 251//99
f 194//154 192//150 159//119 266//194
f 159//119 154//115 266//194
f 195//156 194//154 266//194 236//183
f 266//194 154//115 155//114 236//183
f 183//144 182//140 175//133 267//195
f 187//145 183//144 267//195 189//149
f 267//195 175//133 172//132 222//182
f 189//149 267//195 222//182 160//120
f 157//117 189//149 160//120
f 177//138 211//172 215//174 176//136
f 176//136 215//174 216//176 170//130
f 168//127 173//135 176//136 170//130
f 173//135 168//127 169//126
f 170//130 216//176 137//104 138//103
f 269//196 207//167 208//168 268//197
f 268//197 208//168 198//158 270//198
f 198//158 197//157 210//169 270//198
f 120//98 269//196 268//197 118//97
f 118//97 268//197 270//198 117//96
f 270//198 210//169 114//95 117//96
f 203//163 207//167 269//196 271//199
f 206//166 205//164 272//200 220//180
f 272//200 205//164 203//163 271//199
f 271//199 269//196 120//98 123//99
f 220//180 272//200 124//100 127//101
f 124//100 272//200 271//199 123//99
